<svg width="10" height="9" viewBox="0 0 10 9" fill="none" xmlns="http://www.w3.org/2000/svg">
<path d="M5.26761 1.66734L5.54511 1.38589C6.01827 0.924528 6.64724 0.671554 7.2984 0.680712C7.94956 0.68987 8.5716 0.960439 9.03237 1.43494C9.49315 1.90944 9.75636 2.55048 9.76608 3.22188C9.7758 3.89329 9.53126 4.54214 9.08443 5.03061L5.26761 8.96616L1.45079 5.02592C1.00395 4.53745 0.759416 3.8886 0.769135 3.21719C0.778855 2.54579 1.04206 1.90475 1.50284 1.43025C1.96362 0.955748 2.58566 0.68518 3.23682 0.676022C3.88798 0.666863 4.51694 0.919838 4.9901 1.3812L5.26761 1.66734Z" fill="black"/>
</svg>
