<svg width="57" height="40" viewBox="0 0 57 40" fill="none" xmlns="http://www.w3.org/2000/svg">
<path d="M47.5625 19.8193C47.5595 20.237 47.4239 20.649 47.1656 21.0254C46.9073 21.4018 46.5328 21.7331 46.0692 21.9954L34.1692 28.8838C33.4528 29.2863 32.5895 29.5396 31.6778 29.6148C30.7661 29.69 29.8426 29.5841 29.0125 29.3092C28.2911 29.0862 27.6765 28.7223 27.242 28.261C26.8076 27.7997 26.5717 27.2604 26.5625 26.7076V12.931C26.5717 12.3782 26.8076 11.8389 27.242 11.3776C27.6765 10.9163 28.2911 10.5524 29.0125 10.3294C29.8426 10.0545 30.7661 9.94862 31.6778 10.0238C32.5895 10.099 33.4528 10.3523 34.1692 10.7548L46.0692 17.6432C46.5328 17.9055 46.9073 18.2368 47.1656 18.6132C47.4239 18.9896 47.5595 19.4016 47.5625 19.8193Z" fill="white"/>
</svg>
