<svg width="56" height="97" viewBox="0 0 56 97" fill="none" xmlns="http://www.w3.org/2000/svg">
<path d="M39.1789 48.0407C39.1759 49.0628 39.042 50.0708 38.7869 50.9918C38.5318 51.9127 38.1618 52.7235 37.7039 53.3652L25.9503 70.2194C25.2427 71.2043 24.39 71.8241 23.4895 72.0081C22.589 72.1921 21.6769 71.933 20.857 71.2603C20.1445 70.7147 19.5374 69.8244 19.1083 68.6957C18.6792 67.5669 18.4462 66.2475 18.4371 64.895V31.1865C18.4462 29.834 18.6792 28.5145 19.1083 27.3858C19.5374 26.257 20.1445 25.3667 20.857 24.8211C21.6769 24.1484 22.589 23.8893 23.4895 24.0734C24.39 24.2574 25.2427 24.8772 25.9503 25.862L37.7039 42.7162C38.1618 43.358 38.5318 44.1687 38.7869 45.0897C39.042 46.0106 39.1759 47.0187 39.1789 48.0407Z" fill="#EA6016"/>
</svg>
