<svg width="56" height="97" viewBox="0 0 56 97" fill="none" xmlns="http://www.w3.org/2000/svg">
<path d="M39.1789 48.081C39.1759 49.103 39.042 50.1111 38.7869 51.0321C38.5318 51.953 38.1618 52.7638 37.7039 53.4055L25.9503 70.2597C25.2427 71.2446 24.39 71.8643 23.4895 72.0484C22.589 72.2324 21.6769 71.9733 20.857 71.3006C20.1445 70.755 19.5374 69.8647 19.1083 68.736C18.6792 67.6072 18.4462 66.2878 18.4371 64.9352V31.2268C18.4462 29.8742 18.6792 28.5548 19.1083 27.4261C19.5374 26.2973 20.1445 25.407 20.857 24.8614C21.6769 24.1887 22.589 23.9296 23.4895 24.1137C24.39 24.2977 25.2427 24.9174 25.9503 25.9023L37.7039 42.7565C38.1618 43.3983 38.5318 44.209 38.7869 45.13C39.042 46.0509 39.1759 47.059 39.1789 48.081Z" fill="#EA6016"/>
</svg>
