<svg width="10" height="10" viewBox="0 0 10 10" fill="none" xmlns="http://www.w3.org/2000/svg">
<path d="M5.26761 1.81822L5.54511 1.53677C6.01827 1.07541 6.64724 0.822433 7.2984 0.831591C7.94956 0.840749 8.5716 1.11132 9.03237 1.58582C9.49315 2.06032 9.75636 2.70136 9.76608 3.37276C9.7758 4.04416 9.53126 4.69302 9.08443 5.18149L5.26761 9.11704L1.45079 5.1768C1.00395 4.68833 0.759416 4.03947 0.769135 3.36807C0.778855 2.69667 1.04206 2.05563 1.50284 1.58113C1.96362 1.10663 2.58566 0.836058 3.23682 0.8269C3.88798 0.817742 4.51694 1.07072 4.9901 1.53208L5.26761 1.81822Z" fill="black"/>
</svg>
