<svg width="20" height="18" viewBox="0 0 20 18" fill="none" xmlns="http://www.w3.org/2000/svg">
<path d="M9.85444 18C14.9215 18 19.0292 13.9706 19.0292 9C19.0292 4.02944 14.9215 0 9.85444 0C4.78737 0 0.679688 4.02944 0.679688 9C0.679688 13.9706 4.78737 18 9.85444 18Z" fill="#5B68C0"/>
<path fill-rule="evenodd" clip-rule="evenodd" d="M11.0895 5.10137C11.0895 5.10137 9.7277 5.0141 9.37857 6.28479C9.37857 6.28479 9.25215 6.61815 9.26951 7.43929L8.01904 7.44285V8.51704L9.26951 8.51349V12.9001H10.8635V8.51704L12.1276 8.51704V7.43929L10.8635 7.43929V6.85392C10.8635 6.47439 11.0784 6.11143 11.707 6.11143H12.3006V5.10137H11.0895Z" fill="white"/>
</svg>
