<svg width="245" height="225" viewBox="0 0 245 225" fill="none" xmlns="http://www.w3.org/2000/svg">
<path d="M122.5 159.375C119.894 159.363 117.323 158.818 114.975 157.78C112.627 156.743 110.559 155.238 108.923 153.375L65.9458 105.563C63.4345 102.684 61.8541 99.2157 61.3849 95.5525C60.9156 91.8894 61.5763 88.1788 63.2916 84.8438C64.6828 81.9452 66.9531 79.4758 69.8313 77.7302C72.7095 75.9847 76.0739 75.0369 79.5229 75L165.477 75C168.926 75.0369 172.29 75.9847 175.169 77.7302C178.047 79.4758 180.317 81.9452 181.708 84.8438C183.424 88.1788 184.084 91.8894 183.615 95.5525C183.146 99.2157 181.565 102.684 179.054 105.563L136.077 153.375C134.441 155.238 132.373 156.743 130.025 157.78C127.677 158.818 125.106 159.363 122.5 159.375Z" fill="#E96200"/>
</svg>
