<svg width="56" height="97" viewBox="0 0 56 97" fill="none" xmlns="http://www.w3.org/2000/svg">
<path d="M39.1791 48.0405C39.1762 49.0625 39.0423 50.0706 38.7871 50.9915C38.532 51.9125 38.1621 52.7232 37.7042 53.365L25.9505 70.2192C25.2429 71.2041 24.3903 71.8238 23.4898 72.0078C22.5893 72.1919 21.6771 71.9328 20.8572 71.2601C20.1447 70.7145 19.5376 69.8242 19.1085 68.6954C18.6794 67.5667 18.4464 66.2473 18.4374 64.8947V31.1863C18.4464 29.8337 18.6794 28.5143 19.1085 27.3855C19.5376 26.2568 20.1447 25.3665 20.8572 24.8209C21.6771 24.1482 22.5893 23.8891 23.4898 24.0731C24.3903 24.2572 25.2429 24.8769 25.9505 25.8618L37.7042 42.716C38.1621 43.3577 38.532 44.1685 38.7871 45.0894C39.0423 46.0104 39.1762 47.0185 39.1791 48.0405Z" fill="#EA6016"/>
</svg>
