<svg width="56" height="97" viewBox="0 0 56 97" fill="none" xmlns="http://www.w3.org/2000/svg">
<path d="M39.1789 48.0813C39.1759 49.1033 39.042 50.1114 38.7869 51.0324C38.5318 51.9533 38.1618 52.7641 37.7039 53.4058L25.9503 70.26C25.2427 71.2449 24.39 71.8646 23.4895 72.0487C22.589 72.2327 21.6769 71.9736 20.857 71.3009C20.1445 70.7553 19.5374 69.865 19.1083 68.7363C18.6792 67.6075 18.4462 66.2881 18.4371 64.9355V31.2271C18.4462 29.8745 18.6792 28.5551 19.1083 27.4264C19.5374 26.2976 20.1445 25.4073 20.857 24.8617C21.6769 24.189 22.589 23.9299 23.4895 24.114C24.39 24.298 25.2427 24.9177 25.9503 25.9026L37.7039 42.7568C38.1618 43.3986 38.5318 44.2093 38.7869 45.1303C39.042 46.0512 39.1759 47.0593 39.1789 48.0813Z" fill="#EA6016"/>
</svg>
