<svg width="10" height="9" viewBox="0 0 10 9" fill="none" xmlns="http://www.w3.org/2000/svg">
<path d="M5.26761 1.421L5.54511 1.13956C6.01827 0.67819 6.64724 0.425216 7.2984 0.434374C7.94956 0.443532 8.5716 0.714101 9.03237 1.1886C9.49315 1.6631 9.75636 2.30414 9.76608 2.97555C9.7758 3.64695 9.53126 4.2958 9.08443 4.78427L5.26761 8.71982L1.45079 4.77958C1.00395 4.29111 0.759416 3.64226 0.769135 2.97086C0.778855 2.29945 1.04206 1.65841 1.50284 1.18391C1.96362 0.70941 2.58566 0.438842 3.23682 0.429684C3.88798 0.420526 4.51694 0.6735 4.9901 1.13487L5.26761 1.421Z" fill="black"/>
</svg>
