<svg width="245" height="225" viewBox="0 0 245 225" fill="none" xmlns="http://www.w3.org/2000/svg">
<path d="M122.5 159.375C119.894 159.363 117.323 158.818 114.975 157.781C112.626 156.743 110.559 155.238 108.923 153.375L65.9457 105.563C63.4344 102.684 61.854 99.2158 61.3848 95.5526C60.9155 91.8895 61.5762 88.179 63.2915 84.8439C64.6827 81.9454 66.953 79.4759 69.8312 77.7303C72.7094 75.9848 76.0738 75.037 79.5228 75.0001L165.477 75.0001C168.926 75.037 172.29 75.9848 175.169 77.7303C178.047 79.4759 180.317 81.9454 181.708 84.8439C183.423 88.179 184.084 91.8895 183.615 95.5526C183.146 99.2158 181.565 102.684 179.054 105.563L136.077 153.375C134.441 155.238 132.373 156.743 130.025 157.781C127.676 158.818 125.106 159.363 122.5 159.375Z" fill="#E96200"/>
</svg>
