<svg width="10" height="9" viewBox="0 0 10 9" fill="none" xmlns="http://www.w3.org/2000/svg">
<path d="M5.26761 1.57188L5.54511 1.29043C6.01827 0.829069 6.64724 0.576095 7.2984 0.585253C7.94956 0.594411 8.5716 0.86498 9.03237 1.33948C9.49315 1.81398 9.75636 2.45502 9.76608 3.12642C9.7758 3.79783 9.53126 4.44668 9.08443 4.93515L5.26761 8.8707L1.45079 4.93046C1.00395 4.44199 0.759416 3.79314 0.769135 3.12173C0.778855 2.45033 1.04206 1.80929 1.50284 1.33479C1.96362 0.860289 2.58566 0.589721 3.23682 0.580563C3.88798 0.571404 4.51694 0.824379 4.9901 1.28574L5.26761 1.57188Z" fill="black"/>
</svg>
