<svg width="10" height="9" viewBox="0 0 10 9" fill="none" xmlns="http://www.w3.org/2000/svg">
<path d="M5.26761 1.11949L5.54511 0.838042C6.01827 0.376677 6.64724 0.123703 7.2984 0.132861C7.94956 0.142019 8.5716 0.412587 9.03237 0.887088C9.49315 1.36159 9.75636 2.00263 9.76608 2.67403C9.7758 3.34543 9.53126 3.99429 9.08443 4.48276L5.26761 8.4183L1.45079 4.47807C1.00395 3.9896 0.759416 3.34074 0.769135 2.66934C0.778855 1.99794 1.04206 1.3569 1.50284 0.882397C1.96362 0.407897 2.58566 0.137328 3.23682 0.12817C3.88798 0.119012 4.51694 0.371986 4.9901 0.833351L5.26761 1.11949Z" fill="black"/>
</svg>
