<svg width="10" height="9" viewBox="0 0 10 9" fill="none" xmlns="http://www.w3.org/2000/svg">
<path d="M5.26761 1.36558L5.54511 1.08414C6.01827 0.62277 6.64724 0.369796 7.2984 0.378954C7.94956 0.388113 8.5716 0.658681 9.03237 1.13318C9.49315 1.60768 9.75636 2.24872 9.76608 2.92013C9.7758 3.59153 9.53126 4.24038 9.08443 4.72885L5.26761 8.6644L1.45079 4.72416C1.00395 4.23569 0.759416 3.58684 0.769135 2.91544C0.778855 2.24403 1.04206 1.60299 1.50284 1.12849C1.96362 0.65399 2.58566 0.383422 3.23682 0.374264C3.88798 0.365106 4.51694 0.61808 4.9901 1.07945L5.26761 1.36558Z" fill="black"/>
</svg>
