<svg width="56" height="97" viewBox="0 0 56 97" fill="none" xmlns="http://www.w3.org/2000/svg">
<path d="M39.1789 48.0408C39.1759 49.0628 39.042 50.0709 38.7869 50.9918C38.5318 51.9128 38.1618 52.7236 37.7039 53.3653L25.9503 70.2195C25.2427 71.2044 24.39 71.8241 23.4895 72.0081C22.589 72.1922 21.6769 71.9331 20.857 71.2604C20.1445 70.7148 19.5374 69.8245 19.1083 68.6957C18.6792 67.567 18.4462 66.2476 18.4371 64.895V31.1866C18.4462 29.834 18.6792 28.5146 19.1083 27.3858C19.5374 26.2571 20.1445 25.3668 20.857 24.8212C21.6769 24.1485 22.589 23.8894 23.4895 24.0734C24.39 24.2575 25.2427 24.8772 25.9503 25.8621L37.7039 42.7163C38.1618 43.358 38.5318 44.1688 38.7869 45.0897C39.042 46.0107 39.1759 47.0188 39.1789 48.0408Z" fill="#EA6016"/>
</svg>
