<svg width="57" height="97" viewBox="0 0 57 97" fill="none" xmlns="http://www.w3.org/2000/svg">
<path d="M39.8951 48.0813C39.8921 49.1033 39.7582 50.1113 39.5031 51.0323C39.248 51.9533 38.878 52.764 38.4201 53.4058L26.6664 70.26C25.9588 71.2448 25.1062 71.8646 24.2057 72.0486C23.3052 72.2326 22.393 71.9735 21.5732 71.3009C20.8607 70.7553 20.2536 69.8649 19.8245 68.7362C19.3954 67.6075 19.1624 66.288 19.1533 64.9355V31.227C19.1624 29.8745 19.3954 28.555 19.8245 27.4263C20.2536 26.2976 20.8607 25.4072 21.5732 24.8617C22.393 24.189 23.3052 23.9299 24.2057 24.1139C25.1062 24.2979 25.9588 24.9177 26.6664 25.9025L38.4201 42.7568C38.878 43.3985 39.248 44.2093 39.5031 45.1302C39.7582 46.0512 39.8921 47.0592 39.8951 48.0813Z" fill="#EA6016"/>
</svg>
