<svg width="10" height="10" viewBox="0 0 10 10" fill="none" xmlns="http://www.w3.org/2000/svg">
<path d="M5.26761 1.96861L5.54511 1.68716C6.01827 1.2258 6.64724 0.972824 7.2984 0.981982C7.94956 0.99114 8.5716 1.26171 9.03237 1.73621C9.49315 2.21071 9.75636 2.85175 9.76608 3.52315C9.7758 4.19456 9.53126 4.84341 9.08443 5.33188L5.26761 9.26743L1.45079 5.32719C1.00395 4.83872 0.759416 4.18986 0.769135 3.51846C0.778855 2.84706 1.04206 2.20602 1.50284 1.73152C1.96362 1.25702 2.58566 0.986449 3.23682 0.977291C3.88798 0.968133 4.51694 1.22111 4.9901 1.68247L5.26761 1.96861Z" fill="black"/>
</svg>
