<svg width="10" height="9" viewBox="0 0 10 9" fill="none" xmlns="http://www.w3.org/2000/svg">
<path d="M5.26761 1.5167L5.54511 1.23526C6.01827 0.773894 6.64724 0.520919 7.2984 0.530077C7.94956 0.539236 8.5716 0.809804 9.03237 1.2843C9.49315 1.75881 9.75636 2.39985 9.76608 3.07125C9.7758 3.74265 9.53126 4.39151 9.08443 4.87998L5.26761 8.81552L1.45079 4.87529C1.00395 4.38682 0.759416 3.73796 0.769135 3.06656C0.778855 2.39516 1.04206 1.75411 1.50284 1.27961C1.96362 0.805113 2.58566 0.534545 3.23682 0.525387C3.88798 0.516229 4.51694 0.769203 4.9901 1.23057L5.26761 1.5167Z" fill="black"/>
</svg>
