<svg width="20" height="18" viewBox="0 0 20 18" fill="none" xmlns="http://www.w3.org/2000/svg">
<path d="M9.85444 18C14.9215 18 19.0292 13.9706 19.0292 9C19.0292 4.02944 14.9215 0 9.85444 0C4.78737 0 0.679688 4.02944 0.679688 9C0.679688 13.9706 4.78737 18 9.85444 18Z" fill="#5B68C0"/>
<path fill-rule="evenodd" clip-rule="evenodd" d="M11.0896 5.10125C11.0896 5.10125 9.72783 5.01398 9.3787 6.28467C9.3787 6.28467 9.25227 6.61803 9.26963 7.43917L8.01917 7.44272V8.51692L9.26963 8.51337V12.9H10.8636V8.51692L12.1278 8.51692V7.43917L10.8636 7.43917V6.8538C10.8636 6.47427 11.0785 6.11131 11.7071 6.11131H12.3007V5.10125H11.0896Z" fill="white"/>
</svg>
