<svg width="10" height="9" viewBox="0 0 10 9" fill="none" xmlns="http://www.w3.org/2000/svg">
<path d="M5.26761 1.27037L5.54511 0.988921C6.01827 0.527556 6.64724 0.274582 7.2984 0.28374C7.94956 0.292898 8.5716 0.563466 9.03237 1.03797C9.49315 1.51247 9.75636 2.15351 9.76608 2.82491C9.7758 3.49631 9.53126 4.14517 9.08443 4.63364L5.26761 8.56918L1.45079 4.62895C1.00395 4.14048 0.759416 3.49162 0.769135 2.82022C0.778855 2.14882 1.04206 1.50778 1.50284 1.03328C1.96362 0.558775 2.58566 0.288207 3.23682 0.279049C3.88798 0.269891 4.51694 0.522865 4.9901 0.98423L5.26761 1.27037Z" fill="black"/>
</svg>
