<svg width="20" height="18" viewBox="0 0 20 18" fill="none" xmlns="http://www.w3.org/2000/svg">
<path d="M9.85438 18C14.9215 18 19.0291 13.9706 19.0291 9C19.0291 4.02944 14.9215 0 9.85438 0C4.7873 0 0.679626 4.02944 0.679626 9C0.679626 13.9706 4.7873 18 9.85438 18Z" fill="#5B68C0"/>
<path fill-rule="evenodd" clip-rule="evenodd" d="M11.0895 5.10125C11.0895 5.10125 9.7277 5.01398 9.37857 6.28467C9.37857 6.28467 9.25215 6.61803 9.26951 7.43917L8.01904 7.44272V8.51692L9.26951 8.51337V12.9H10.8635V8.51692L12.1276 8.51692V7.43917L10.8635 7.43917V6.8538C10.8635 6.47427 11.0784 6.11131 11.707 6.11131H12.3006V5.10125H11.0895Z" fill="white"/>
</svg>
