<svg width="55" height="21" viewBox="0 0 55 21" fill="none" xmlns="http://www.w3.org/2000/svg">
<rect opacity="0.4" x="0.661133" y="0.652344" width="53.9566" height="19.9744" rx="9.98721" fill="#F4F4F4"/>
<line x1="28.1392" y1="0.652344" x2="28.1392" y2="20.6268" stroke="black" stroke-opacity="0.6"/>
<path d="M15.7735 13.0689C15.1957 13.0689 14.6416 12.7298 14.233 12.1261C13.8245 11.5223 13.5949 10.7035 13.5949 9.84974C13.5949 8.99596 13.8245 8.17714 14.233 7.57343C14.6416 6.96971 15.1957 6.63055 15.7735 6.63055C16.3513 6.63055 16.9054 6.96971 17.314 7.57343C17.7226 8.17714 17.9521 8.99596 17.9521 9.84974C17.9521 10.7035 17.7226 11.5223 17.314 12.1261C16.9054 12.7298 16.3513 13.0689 15.7735 13.0689ZM15.2289 2.60656C15.2289 2.39311 15.2863 2.18841 15.3884 2.03748C15.4905 1.88655 15.6291 1.80176 15.7735 1.80176C15.918 1.80176 16.0565 1.88655 16.1586 2.03748C16.2608 2.18841 16.3182 2.39311 16.3182 2.60656V4.21615C16.3182 4.4296 16.2608 4.6343 16.1586 4.78523C16.0565 4.93616 15.918 5.02095 15.7735 5.02095C15.6291 5.02095 15.4905 4.93616 15.3884 4.78523C15.2863 4.6343 15.2289 4.4296 15.2289 4.21615V2.60656ZM18.8508 4.16787C18.8996 4.08362 18.9597 4.01519 19.0272 3.96689C19.0948 3.91858 19.1684 3.89143 19.2434 3.88715C19.3184 3.88287 19.3932 3.90155 19.4631 3.94201C19.533 3.98247 19.5965 4.04384 19.6496 4.12227C19.7026 4.2007 19.7442 4.2945 19.7716 4.39778C19.7989 4.50105 19.8116 4.61158 19.8087 4.72241C19.8058 4.83325 19.7874 4.942 19.7547 5.04185C19.722 5.1417 19.6757 5.23048 19.6187 5.30263L18.8562 6.42935C18.8074 6.5136 18.7473 6.58202 18.6797 6.63033C18.6122 6.67863 18.5386 6.70578 18.4635 6.71006C18.3885 6.71434 18.3137 6.69567 18.2438 6.65521C18.174 6.61474 18.1105 6.55337 18.0574 6.47494C18.0043 6.39651 17.9628 6.30271 17.9354 6.19944C17.908 6.09616 17.8954 5.98564 17.8983 5.8748C17.9012 5.76396 17.9196 5.65521 17.9522 5.55536C17.9849 5.45551 18.0312 5.36673 18.0883 5.29458L18.8508 4.16787ZM20.6699 9.04494C20.8143 9.04494 20.9529 9.12973 21.055 9.28066C21.1571 9.43159 21.2145 9.6363 21.2145 9.84974C21.2145 10.0632 21.1571 10.2679 21.055 10.4188C20.9529 10.5697 20.8143 10.6545 20.6699 10.6545H19.5915C19.447 10.6545 19.3085 10.5697 19.2064 10.4188C19.1042 10.2679 19.0468 10.0632 19.0468 9.84974C19.0468 9.6363 19.1042 9.43159 19.2064 9.28066C19.3085 9.12973 19.447 9.04494 19.5915 9.04494H20.6699ZM19.6187 14.3969C19.6757 14.469 19.722 14.5578 19.7547 14.6576C19.7874 14.7575 19.8058 14.8662 19.8087 14.9771C19.8116 15.0879 19.7989 15.1984 19.7716 15.3017C19.7442 15.405 19.7026 15.4988 19.6496 15.5772C19.5965 15.6556 19.533 15.717 19.4631 15.7575C19.3932 15.7979 19.3184 15.8166 19.2434 15.8123C19.1684 15.808 19.0948 15.7809 19.0272 15.7326C18.9597 15.6843 18.8996 15.6159 18.8508 15.5316L18.0883 14.4049C18.0312 14.3328 17.9849 14.244 17.9522 14.1441C17.9196 14.0443 17.9012 13.9355 17.8983 13.8247C17.8954 13.7138 17.908 13.6033 17.9354 13.5C17.9628 13.3968 18.0043 13.303 18.0574 13.2245C18.1105 13.1461 18.174 13.0847 18.2438 13.0443C18.3137 13.0038 18.3885 12.9851 18.4635 12.9894C18.5386 12.9937 18.6122 13.0208 18.6797 13.0692C18.7473 13.1175 18.8074 13.1859 18.8562 13.2701L19.6187 14.3969ZM16.3182 17.0849C16.3182 17.2983 16.2608 17.503 16.1586 17.654C16.0565 17.8049 15.918 17.8897 15.7735 17.8897C15.6291 17.8897 15.4905 17.8049 15.3884 17.654C15.2863 17.503 15.2289 17.2983 15.2289 17.0849V15.4914C15.2289 15.2779 15.2863 15.0732 15.3884 14.9223C15.4905 14.7714 15.6291 14.6866 15.7735 14.6866C15.918 14.6866 16.0565 14.7714 16.1586 14.9223C16.2608 15.0732 16.3182 15.2779 16.3182 15.4914V17.0849ZM12.6963 15.5316C12.6475 15.6159 12.5874 15.6843 12.5198 15.7326C12.4522 15.7809 12.3786 15.808 12.3036 15.8123C12.2286 15.8166 12.1538 15.7979 12.0839 15.7575C12.014 15.717 11.9506 15.6556 11.8975 15.5772C11.8444 15.4988 11.8029 15.405 11.7755 15.3017C11.7481 15.1984 11.7355 15.0879 11.7384 14.9771C11.7413 14.8662 11.7596 14.7575 11.7923 14.6576C11.825 14.5578 11.8713 14.469 11.9283 14.3969L12.6908 13.2701C12.7397 13.1859 12.7997 13.1175 12.8673 13.0692C12.9349 13.0208 13.0085 12.9937 13.0835 12.9894C13.1585 12.9851 13.2333 13.0038 13.3032 13.0443C13.3731 13.0847 13.4366 13.1461 13.4896 13.2245C13.5427 13.303 13.5842 13.3968 13.6116 13.5C13.639 13.6033 13.6516 13.7138 13.6488 13.8247C13.6459 13.9355 13.6275 14.0443 13.5948 14.1441C13.5621 14.244 13.5158 14.3328 13.4588 14.4049L12.6963 15.5316ZM10.8772 10.6545C10.7327 10.6545 10.5942 10.5697 10.492 10.4188C10.3899 10.2679 10.3325 10.0632 10.3325 9.84974C10.3325 9.6363 10.3899 9.43159 10.492 9.28066C10.5942 9.12973 10.7327 9.04494 10.8772 9.04494H11.9556C12.1 9.04494 12.2385 9.12973 12.3407 9.28066C12.4428 9.43159 12.5002 9.6363 12.5002 9.84974C12.5002 10.0632 12.4428 10.2679 12.3407 10.4188C12.2385 10.5697 12.1 10.6545 11.9556 10.6545H10.8772ZM11.9283 5.30263C11.8713 5.23048 11.825 5.1417 11.7923 5.04185C11.7596 4.942 11.7413 4.83325 11.7384 4.72241C11.7355 4.61158 11.7481 4.50105 11.7755 4.39778C11.8029 4.2945 11.8444 4.2007 11.8975 4.12227C11.9506 4.04384 12.014 3.98247 12.0839 3.94201C12.1538 3.90155 12.2286 3.88287 12.3036 3.88715C12.3786 3.89143 12.4522 3.91858 12.5198 3.96689C12.5874 4.01519 12.6475 4.08362 12.6963 4.16787L13.4588 5.29458C13.5158 5.36673 13.5621 5.45551 13.5948 5.55536C13.6275 5.65521 13.6459 5.76396 13.6488 5.8748C13.6516 5.98564 13.639 6.09616 13.6116 6.19944C13.5842 6.30271 13.5427 6.39651 13.4896 6.47494C13.4366 6.55337 13.3731 6.61474 13.3032 6.65521C13.2333 6.69567 13.1585 6.71434 13.0835 6.71006C13.0085 6.70578 12.9349 6.67863 12.8673 6.63033C12.7997 6.58202 12.7397 6.5136 12.6908 6.42935L11.9283 5.30263Z" fill="white"/>
<path d="M36.2495 9.22526C36.2495 12.7381 38.1767 15.5858 40.554 15.5858C42.2441 15.5858 43.7067 14.1465 44.411 12.0522C40.554 12.0522 38.6409 9.22526 38.6409 3.52588C37.2235 4.56668 36.2495 6.72788 36.2495 9.22526Z" stroke="black" stroke-width="3" stroke-linecap="round" stroke-linejoin="round"/>
</svg>
