<svg width="55" height="21" viewBox="0 0 55 21" fill="none" xmlns="http://www.w3.org/2000/svg">
<rect opacity="0.4" x="0.661133" y="0.6521" width="53.9566" height="19.9744" rx="9.98721" fill="#F4F4F4"/>
<line x1="28.1393" y1="0.6521" x2="28.1393" y2="20.6265" stroke="black" stroke-opacity="0.6"/>
<path d="M15.7734 13.0687C15.1956 13.0687 14.6415 12.7295 14.2329 12.1258C13.8243 11.5221 13.5948 10.7033 13.5948 9.8495C13.5948 8.99571 13.8243 8.1769 14.2329 7.57318C14.6415 6.96947 15.1956 6.6303 15.7734 6.6303C16.3512 6.6303 16.9053 6.96947 17.3139 7.57318C17.7224 8.1769 17.952 8.99571 17.952 9.8495C17.952 10.7033 17.7224 11.5221 17.3139 12.1258C16.9053 12.7295 16.3512 13.0687 15.7734 13.0687ZM15.2288 2.60631C15.2288 2.39287 15.2861 2.18816 15.3883 2.03723C15.4904 1.8863 15.6289 1.80151 15.7734 1.80151C15.9178 1.80151 16.0564 1.8863 16.1585 2.03723C16.2607 2.18816 16.318 2.39287 16.318 2.60631V4.21591C16.318 4.42935 16.2607 4.63406 16.1585 4.78499C16.0564 4.93592 15.9178 5.02071 15.7734 5.02071C15.6289 5.02071 15.4904 4.93592 15.3883 4.78499C15.2861 4.63406 15.2288 4.42935 15.2288 4.21591V2.60631ZM18.8506 4.16762C18.8995 4.08337 18.9595 4.01495 19.0271 3.96664C19.0947 3.91834 19.1683 3.89119 19.2433 3.88691C19.3183 3.88263 19.3931 3.9013 19.463 3.94176C19.5329 3.98223 19.5964 4.0436 19.6494 4.12203C19.7025 4.20046 19.7441 4.29426 19.7714 4.39753C19.7988 4.50081 19.8115 4.61133 19.8086 4.72217C19.8057 4.83301 19.7873 4.94176 19.7546 5.04161C19.7219 5.14145 19.6756 5.23024 19.6186 5.30239L18.8561 6.4291C18.8073 6.51335 18.7472 6.58178 18.6796 6.63008C18.612 6.67839 18.5384 6.70554 18.4634 6.70982C18.3884 6.7141 18.3136 6.69542 18.2437 6.65496C18.1738 6.6145 18.1104 6.55313 18.0573 6.4747C18.0042 6.39626 17.9627 6.30247 17.9353 6.19919C17.9079 6.09592 17.8953 5.98539 17.8982 5.87456C17.9011 5.76372 17.9194 5.65496 17.9521 5.55512C17.9848 5.45527 18.0311 5.36649 18.0881 5.29434L18.8506 4.16762ZM20.6698 9.0447C20.8142 9.0447 20.9527 9.12949 21.0549 9.28042C21.157 9.43135 21.2144 9.63605 21.2144 9.8495C21.2144 10.0629 21.157 10.2676 21.0549 10.4186C20.9527 10.5695 20.8142 10.6543 20.6698 10.6543H19.5914C19.4469 10.6543 19.3084 10.5695 19.2062 10.4186C19.1041 10.2676 19.0467 10.0629 19.0467 9.8495C19.0467 9.63605 19.1041 9.43135 19.2062 9.28042C19.3084 9.12949 19.4469 9.0447 19.5914 9.0447H20.6698ZM19.6186 14.3966C19.6756 14.4688 19.7219 14.5575 19.7546 14.6574C19.7873 14.7572 19.8057 14.866 19.8086 14.9768C19.8115 15.0877 19.7988 15.1982 19.7714 15.3015C19.7441 15.4047 19.7025 15.4985 19.6494 15.577C19.5964 15.6554 19.5329 15.7168 19.463 15.7572C19.3931 15.7977 19.3183 15.8164 19.2433 15.8121C19.1683 15.8078 19.0947 15.7807 19.0271 15.7324C18.9595 15.684 18.8995 15.6156 18.8506 15.5314L18.0881 14.4047C18.0311 14.3325 17.9848 14.2437 17.9521 14.1439C17.9194 14.044 17.9011 13.9353 17.8982 13.8244C17.8953 13.7136 17.9079 13.6031 17.9353 13.4998C17.9627 13.3965 18.0042 13.3027 18.0573 13.2243C18.1104 13.1459 18.1738 13.0845 18.2437 13.044C18.3136 13.0036 18.3884 12.9849 18.4634 12.9892C18.5384 12.9935 18.612 13.0206 18.6796 13.0689C18.7472 13.1172 18.8073 13.1856 18.8561 13.2699L19.6186 14.3966ZM16.318 17.0846C16.318 17.2981 16.2607 17.5028 16.1585 17.6537C16.0564 17.8046 15.9178 17.8894 15.7734 17.8894C15.6289 17.8894 15.4904 17.8046 15.3883 17.6537C15.2861 17.5028 15.2288 17.2981 15.2288 17.0846V15.4911C15.2288 15.2777 15.2861 15.073 15.3883 14.9221C15.4904 14.7711 15.6289 14.6863 15.7734 14.6863C15.9178 14.6863 16.0564 14.7711 16.1585 14.9221C16.2607 15.073 16.318 15.2777 16.318 15.4911V17.0846ZM12.6962 15.5314C12.6473 15.6156 12.5872 15.684 12.5197 15.7324C12.4521 15.7807 12.3785 15.8078 12.3035 15.8121C12.2285 15.8164 12.1537 15.7977 12.0838 15.7572C12.0139 15.7168 11.9504 15.6554 11.8974 15.577C11.8443 15.4985 11.8027 15.4047 11.7754 15.3015C11.748 15.1982 11.7353 15.0877 11.7382 14.9768C11.7411 14.866 11.7595 14.7572 11.7922 14.6574C11.8249 14.5575 11.8712 14.4688 11.9282 14.3966L12.6907 13.2699C12.7395 13.1856 12.7996 13.1172 12.8672 13.0689C12.9348 13.0206 13.0084 12.9935 13.0834 12.9892C13.1584 12.9849 13.2332 13.0036 13.3031 13.044C13.373 13.0845 13.4364 13.1459 13.4895 13.2243C13.5426 13.3027 13.5841 13.3965 13.6115 13.4998C13.6389 13.6031 13.6515 13.7136 13.6486 13.8244C13.6457 13.9353 13.6274 14.044 13.5947 14.1439C13.562 14.2437 13.5157 14.3325 13.4587 14.4047L12.6962 15.5314ZM10.877 10.6543C10.7326 10.6543 10.5941 10.5695 10.4919 10.4186C10.3898 10.2676 10.3324 10.0629 10.3324 9.8495C10.3324 9.63605 10.3898 9.43135 10.4919 9.28042C10.5941 9.12949 10.7326 9.0447 10.877 9.0447H11.9554C12.0999 9.0447 12.2384 9.12949 12.3406 9.28042C12.4427 9.43135 12.5001 9.63605 12.5001 9.8495C12.5001 10.0629 12.4427 10.2676 12.3406 10.4186C12.2384 10.5695 12.0999 10.6543 11.9554 10.6543H10.877ZM11.9282 5.30239C11.8712 5.23024 11.8249 5.14145 11.7922 5.04161C11.7595 4.94176 11.7411 4.83301 11.7382 4.72217C11.7353 4.61133 11.748 4.50081 11.7754 4.39753C11.8027 4.29426 11.8443 4.20046 11.8974 4.12203C11.9504 4.0436 12.0139 3.98223 12.0838 3.94176C12.1537 3.9013 12.2285 3.88263 12.3035 3.88691C12.3785 3.89119 12.4521 3.91834 12.5197 3.96664C12.5872 4.01495 12.6473 4.08337 12.6962 4.16762L13.4587 5.29434C13.5157 5.36649 13.562 5.45527 13.5947 5.55512C13.6274 5.65496 13.6457 5.76372 13.6486 5.87456C13.6515 5.98539 13.6389 6.09592 13.6115 6.19919C13.5841 6.30247 13.5426 6.39626 13.4895 6.4747C13.4364 6.55313 13.373 6.6145 13.3031 6.65496C13.2332 6.69542 13.1584 6.7141 13.0834 6.70982C13.0084 6.70554 12.9348 6.67839 12.8672 6.63008C12.7996 6.58178 12.7395 6.51335 12.6907 6.4291L11.9282 5.30239Z" fill="white"/>
<path d="M36.2496 9.22489C36.2496 12.7377 38.1767 15.5854 40.554 15.5854C42.2441 15.5854 43.7067 14.1461 44.4111 12.0518C40.554 12.0518 38.6409 9.22489 38.6409 3.52551C37.2236 4.56631 36.2496 6.72752 36.2496 9.22489Z" stroke="black" stroke-width="3" stroke-linecap="round" stroke-linejoin="round"/>
</svg>
