<svg width="54" height="21" viewBox="0 0 54 21" fill="none" xmlns="http://www.w3.org/2000/svg">
<rect opacity="0.4" x="0.043457" y="0.6521" width="53.9566" height="19.9744" rx="9.98721" fill="#F4F4F4"/>
<line x1="27.5215" y1="0.6521" x2="27.5215" y2="20.6265" stroke="black" stroke-opacity="0.6"/>
<path d="M15.1558 13.0687C14.578 13.0687 14.0239 12.7295 13.6154 12.1258C13.2068 11.5221 12.9773 10.7033 12.9773 9.8495C12.9773 8.99571 13.2068 8.1769 13.6154 7.57318C14.0239 6.96947 14.578 6.6303 15.1558 6.6303C15.7336 6.6303 16.2878 6.96947 16.6963 7.57318C17.1049 8.1769 17.3344 8.99571 17.3344 9.8495C17.3344 10.7033 17.1049 11.5221 16.6963 12.1258C16.2878 12.7295 15.7336 13.0687 15.1558 13.0687ZM14.6112 2.60631C14.6112 2.39287 14.6686 2.18816 14.7707 2.03723C14.8729 1.8863 15.0114 1.80151 15.1558 1.80151C15.3003 1.80151 15.4388 1.8863 15.541 2.03723C15.6431 2.18816 15.7005 2.39287 15.7005 2.60631V4.21591C15.7005 4.42935 15.6431 4.63406 15.541 4.78499C15.4388 4.93592 15.3003 5.02071 15.1558 5.02071C15.0114 5.02071 14.8729 4.93592 14.7707 4.78499C14.6686 4.63406 14.6112 4.42935 14.6112 4.21591V2.60631ZM18.2331 4.16762C18.2819 4.08337 18.342 4.01495 18.4096 3.96664C18.4771 3.91834 18.5507 3.89119 18.6257 3.88691C18.7008 3.88263 18.7755 3.9013 18.8454 3.94176C18.9153 3.98223 18.9788 4.0436 19.0319 4.12203C19.085 4.20046 19.1265 4.29426 19.1539 4.39753C19.1813 4.50081 19.1939 4.61133 19.191 4.72217C19.1881 4.83301 19.1697 4.94176 19.137 5.04161C19.1044 5.14145 19.058 5.23024 19.001 5.30239L18.2385 6.4291C18.1897 6.51335 18.1296 6.58178 18.062 6.63008C17.9945 6.67839 17.9209 6.70554 17.8459 6.70982C17.7709 6.7141 17.6961 6.69542 17.6262 6.65496C17.5563 6.6145 17.4928 6.55313 17.4397 6.4747C17.3866 6.39626 17.3451 6.30247 17.3177 6.19919C17.2904 6.09592 17.2777 5.98539 17.2806 5.87456C17.2835 5.76372 17.3019 5.65496 17.3346 5.55512C17.3673 5.45527 17.4136 5.36649 17.4706 5.29434L18.2331 4.16762ZM20.0522 9.0447C20.1966 9.0447 20.3352 9.12949 20.4373 9.28042C20.5395 9.43135 20.5968 9.63605 20.5968 9.8495C20.5968 10.0629 20.5395 10.2676 20.4373 10.4186C20.3352 10.5695 20.1966 10.6543 20.0522 10.6543H18.9738C18.8294 10.6543 18.6908 10.5695 18.5887 10.4186C18.4865 10.2676 18.4292 10.0629 18.4292 9.8495C18.4292 9.63605 18.4865 9.43135 18.5887 9.28042C18.6908 9.12949 18.8294 9.0447 18.9738 9.0447H20.0522ZM19.001 14.3966C19.058 14.4688 19.1044 14.5575 19.137 14.6574C19.1697 14.7572 19.1881 14.866 19.191 14.9768C19.1939 15.0877 19.1813 15.1982 19.1539 15.3015C19.1265 15.4047 19.085 15.4985 19.0319 15.577C18.9788 15.6554 18.9153 15.7168 18.8454 15.7572C18.7755 15.7977 18.7008 15.8164 18.6257 15.8121C18.5507 15.8078 18.4771 15.7807 18.4096 15.7324C18.342 15.684 18.2819 15.6156 18.2331 15.5314L17.4706 14.4047C17.4136 14.3325 17.3673 14.2437 17.3346 14.1439C17.3019 14.044 17.2835 13.9353 17.2806 13.8244C17.2777 13.7136 17.2904 13.6031 17.3177 13.4998C17.3451 13.3965 17.3866 13.3027 17.4397 13.2243C17.4928 13.1459 17.5563 13.0845 17.6262 13.044C17.6961 13.0036 17.7709 12.9849 17.8459 12.9892C17.9209 12.9935 17.9945 13.0206 18.062 13.0689C18.1296 13.1172 18.1897 13.1856 18.2385 13.2699L19.001 14.3966ZM15.7005 17.0846C15.7005 17.2981 15.6431 17.5028 15.541 17.6537C15.4388 17.8046 15.3003 17.8894 15.1558 17.8894C15.0114 17.8894 14.8729 17.8046 14.7707 17.6537C14.6686 17.5028 14.6112 17.2981 14.6112 17.0846V15.4911C14.6112 15.2777 14.6686 15.073 14.7707 14.9221C14.8729 14.7711 15.0114 14.6863 15.1558 14.6863C15.3003 14.6863 15.4388 14.7711 15.541 14.9221C15.6431 15.073 15.7005 15.2777 15.7005 15.4911V17.0846ZM12.0786 15.5314C12.0298 15.6156 11.9697 15.684 11.9021 15.7324C11.8345 15.7807 11.7609 15.8078 11.6859 15.8121C11.6109 15.8164 11.5361 15.7977 11.4662 15.7572C11.3964 15.7168 11.3329 15.6554 11.2798 15.577C11.2267 15.4985 11.1852 15.4047 11.1578 15.3015C11.1304 15.1982 11.1178 15.0877 11.1207 14.9768C11.1236 14.866 11.1419 14.7572 11.1746 14.6574C11.2073 14.5575 11.2536 14.4688 11.3107 14.3966L12.0732 13.2699C12.122 13.1856 12.1821 13.1172 12.2496 13.0689C12.3172 13.0206 12.3908 12.9935 12.4658 12.9892C12.5408 12.9849 12.6156 13.0036 12.6855 13.044C12.7554 13.0845 12.8189 13.1459 12.872 13.2243C12.925 13.3027 12.9666 13.3965 12.994 13.4998C13.0213 13.6031 13.034 13.7136 13.0311 13.8244C13.0282 13.9353 13.0098 14.044 12.9771 14.1439C12.9444 14.2437 12.8981 14.3325 12.8411 14.4047L12.0786 15.5314ZM10.2595 10.6543C10.115 10.6543 9.97651 10.5695 9.87437 10.4186C9.77223 10.2676 9.71484 10.0629 9.71484 9.8495C9.71484 9.63605 9.77223 9.43135 9.87437 9.28042C9.97651 9.12949 10.115 9.0447 10.2595 9.0447H11.3379C11.4823 9.0447 11.6209 9.12949 11.723 9.28042C11.8251 9.43135 11.8825 9.63605 11.8825 9.8495C11.8825 10.0629 11.8251 10.2676 11.723 10.4186C11.6209 10.5695 11.4823 10.6543 11.3379 10.6543H10.2595ZM11.3107 5.30239C11.2536 5.23024 11.2073 5.14145 11.1746 5.04161C11.1419 4.94176 11.1236 4.83301 11.1207 4.72217C11.1178 4.61133 11.1304 4.50081 11.1578 4.39753C11.1852 4.29426 11.2267 4.20046 11.2798 4.12203C11.3329 4.0436 11.3964 3.98223 11.4662 3.94176C11.5361 3.9013 11.6109 3.88263 11.6859 3.88691C11.7609 3.89119 11.8345 3.91834 11.9021 3.96664C11.9697 4.01495 12.0298 4.08337 12.0786 4.16762L12.8411 5.29434C12.8981 5.36649 12.9444 5.45527 12.9771 5.55512C13.0098 5.65496 13.0282 5.76372 13.0311 5.87456C13.034 5.98539 13.0213 6.09592 12.994 6.19919C12.9666 6.30247 12.925 6.39626 12.872 6.4747C12.8189 6.55313 12.7554 6.6145 12.6855 6.65496C12.6156 6.69542 12.5408 6.7141 12.4658 6.70982C12.3908 6.70554 12.3172 6.67839 12.2496 6.63008C12.1821 6.58178 12.122 6.51335 12.0732 6.4291L11.3107 5.30239Z" fill="white"/>
<path d="M35.6318 9.22489C35.6318 12.7377 37.559 15.5854 39.9363 15.5854C41.6264 15.5854 43.089 14.1461 43.7933 12.0518C39.9363 12.0518 38.0232 9.22489 38.0232 3.52551C36.6059 4.56631 35.6318 6.72752 35.6318 9.22489Z" stroke="black" stroke-width="3" stroke-linecap="round" stroke-linejoin="round"/>
</svg>
