<svg width="19" height="18" viewBox="0 0 19 18" fill="none" xmlns="http://www.w3.org/2000/svg">
<path d="M9.5146 18C14.5817 18 18.6894 13.9706 18.6894 9C18.6894 4.02944 14.5817 0 9.5146 0C4.44752 0 0.339844 4.02944 0.339844 9C0.339844 13.9706 4.44752 18 9.5146 18Z" fill="#5B68C0"/>
<path fill-rule="evenodd" clip-rule="evenodd" d="M10.7497 5.10125C10.7497 5.10125 9.38786 5.01398 9.03873 6.28467C9.03873 6.28467 8.91231 6.61803 8.92966 7.43917L7.6792 7.44272V8.51692L8.92966 8.51337V12.9H10.5236V8.51692L11.7878 8.51692V7.43917L10.5236 7.43917V6.8538C10.5236 6.47427 10.7385 6.11131 11.3672 6.11131H11.9608V5.10125H10.7497Z" fill="white"/>
</svg>
