<svg width="19" height="18" viewBox="0 0 19 18" fill="none" xmlns="http://www.w3.org/2000/svg">
<path d="M9.5146 18C14.5817 18 18.6894 13.9706 18.6894 9C18.6894 4.02944 14.5817 0 9.5146 0C4.44752 0 0.339844 4.02944 0.339844 9C0.339844 13.9706 4.44752 18 9.5146 18Z" fill="#5B68C0"/>
<path fill-rule="evenodd" clip-rule="evenodd" d="M10.7497 5.10122C10.7497 5.10122 9.38786 5.01395 9.03873 6.28464C9.03873 6.28464 8.91231 6.618 8.92966 7.43914L7.6792 7.44269V8.51689L8.92966 8.51334V12.8999H10.5236V8.51689L11.7878 8.51689V7.43914L10.5236 7.43914V6.85377C10.5236 6.47424 10.7385 6.11128 11.3672 6.11128H11.9608V5.10122H10.7497Z" fill="white"/>
</svg>
