<svg width="20" height="18" viewBox="0 0 20 18" fill="none" xmlns="http://www.w3.org/2000/svg">
<path d="M9.85444 18C14.9215 18 19.0292 13.9706 19.0292 9C19.0292 4.02944 14.9215 0 9.85444 0C4.78737 0 0.679688 4.02944 0.679688 9C0.679688 13.9706 4.78737 18 9.85444 18Z" fill="#5B68C0"/>
<path fill-rule="evenodd" clip-rule="evenodd" d="M11.0896 5.10122C11.0896 5.10122 9.72783 5.01395 9.3787 6.28464C9.3787 6.28464 9.25227 6.618 9.26963 7.43914L8.01917 7.44269V8.51689L9.26963 8.51334V12.8999H10.8636V8.51689L12.1278 8.51689V7.43914L10.8636 7.43914V6.85377C10.8636 6.47424 11.0785 6.11128 11.7071 6.11128H12.3007V5.10122H11.0896Z" fill="white"/>
</svg>
