<svg width="20" height="18" viewBox="0 0 20 18" fill="none" xmlns="http://www.w3.org/2000/svg">
<path d="M9.85438 18C14.9215 18 19.0291 13.9706 19.0291 9C19.0291 4.02944 14.9215 0 9.85438 0C4.7873 0 0.679626 4.02944 0.679626 9C0.679626 13.9706 4.7873 18 9.85438 18Z" fill="#5B68C0"/>
<path fill-rule="evenodd" clip-rule="evenodd" d="M11.0895 5.10122C11.0895 5.10122 9.7277 5.01395 9.37857 6.28464C9.37857 6.28464 9.25215 6.618 9.26951 7.43914L8.01904 7.44269V8.51689L9.26951 8.51334V12.8999H10.8635V8.51689L12.1276 8.51689V7.43914L10.8635 7.43914V6.85377C10.8635 6.47424 11.0784 6.11128 11.707 6.11128H12.3006V5.10122H11.0895Z" fill="white"/>
</svg>
