<svg width="25" height="21" viewBox="0 0 25 21" fill="none" xmlns="http://www.w3.org/2000/svg">
<path d="M19.4373 16.4548C19.9183 16.0574 20.6893 16.0574 21.1703 16.4548L24.3491 18.5894H24.4043C25.0474 19.1302 25.0474 20.0069 24.4043 20.5477C23.7612 21.0885 22.7185 21.0885 22.0753 20.5477L19.4373 18.0325L19.3372 17.9386C19.1508 17.7422 19.0478 17.4974 19.0478 17.2436C19.0478 16.9476 19.1879 16.6637 19.4373 16.4548ZM10.6734 0.25C13.5042 0.25 16.219 1.19556 18.2207 2.87866C20.2223 4.56176 21.3469 6.84453 21.3469 9.2248C21.3469 14.1814 16.5682 18.1996 10.6734 18.1996C4.77866 18.1996 0 14.1814 0 9.2248C0 4.26815 4.77866 0.25 10.6734 0.25Z" fill="black"/>
</svg>
