<svg width="105" height="27" viewBox="0 0 105 27" fill="none" xmlns="http://www.w3.org/2000/svg">
<path d="M95.5854 23.0445C95.0728 22.6803 94.2421 22.6799 93.7291 23.0445L89.1073 26.3287C88.5946 26.693 88.2584 26.3635 88.3564 25.5914L89.239 18.6353C89.3369 17.8638 89.0805 16.7959 88.6654 16.249L84.9263 11.3227C84.5116 10.7763 84.6395 10.2423 85.2131 10.1296L90.3805 9.11473C90.9536 9.00217 91.6257 8.34252 91.8822 7.63996L94.1932 1.31111C94.4495 0.609176 94.8648 0.608547 95.1213 1.31111L97.4322 7.63996C97.6885 8.34189 98.3604 9.00207 98.934 9.11473L104.101 10.1296C104.674 10.2422 104.803 10.7759 104.388 11.3227L100.649 16.249C100.234 16.7954 99.9774 17.8631 100.075 18.6353L100.958 25.5914C101.056 26.3629 100.72 26.6933 100.207 26.3287L95.5854 23.0445Z" fill="white"/>
<mask id="mask0_96_2824" style="mask-type:luminance" maskUnits="userSpaceOnUse" x="84" y="0" width="21" height="27">
<path d="M95.5854 23.0445C95.0728 22.6803 94.2421 22.6799 93.7291 23.0445L89.1073 26.3287C88.5946 26.693 88.2584 26.3635 88.3564 25.5914L89.239 18.6353C89.3369 17.8638 89.0805 16.7959 88.6654 16.249L84.9263 11.3227C84.5116 10.7763 84.6395 10.2423 85.2131 10.1296L90.3805 9.11473C90.9536 9.00217 91.6257 8.34252 91.8822 7.63996L94.1932 1.31111C94.4495 0.609176 94.8648 0.608547 95.1213 1.31111L97.4322 7.63996C97.6885 8.34189 98.3604 9.00207 98.934 9.11473L104.101 10.1296C104.674 10.2422 104.803 10.7759 104.388 11.3227L100.649 16.249C100.234 16.7954 99.9774 17.8631 100.075 18.6353L100.958 25.5914C101.056 26.3629 100.72 26.6933 100.207 26.3287L95.5854 23.0445Z" fill="white"/>
</mask>
<g mask="url(#mask0_96_2824)">
<path fill-rule="evenodd" clip-rule="evenodd" d="M94.8323 -0.432861H109.177V29.8332H94.8323V-0.432861Z" fill="white"/>
</g>
<path d="M74.6755 23.0445C74.1629 22.6803 73.3322 22.6799 72.8192 23.0445L68.1973 26.3287C67.6847 26.693 67.3485 26.3635 67.4464 25.5914L68.3291 18.6353C68.427 17.8638 68.1706 16.7959 67.7555 16.249L64.0164 11.3227C63.6017 10.7763 63.7296 10.2423 64.3032 10.1296L69.4705 9.11473C70.0437 9.00217 70.7158 8.34252 70.9723 7.63996L73.2832 1.31111C73.5395 0.609176 73.9549 0.608547 74.2114 1.31111L76.5223 7.63996C76.7786 8.34189 77.4505 9.00207 78.0241 9.11473L83.1915 10.1296C83.7646 10.2422 83.8934 10.7759 83.4783 11.3227L79.7391 16.249C79.3244 16.7954 79.0675 17.8631 79.1655 18.6353L80.0482 25.5914C80.1461 26.3629 79.8104 26.6933 79.2973 26.3287L74.6755 23.0445Z" fill="#FBC50C"/>
<mask id="mask1_96_2824" style="mask-type:luminance" maskUnits="userSpaceOnUse" x="63" y="0" width="21" height="27">
<path d="M74.6755 23.0445C74.1629 22.6803 73.3322 22.6799 72.8192 23.0445L68.1973 26.3287C67.6847 26.693 67.3485 26.3635 67.4464 25.5914L68.3291 18.6353C68.427 17.8638 68.1706 16.7959 67.7555 16.249L64.0164 11.3227C63.6017 10.7763 63.7296 10.2423 64.3032 10.1296L69.4705 9.11473C70.0437 9.00217 70.7158 8.34252 70.9723 7.63996L73.2832 1.31111C73.5395 0.609176 73.9549 0.608547 74.2114 1.31111L76.5223 7.63996C76.7786 8.34189 77.4505 9.00207 78.0241 9.11473L83.1915 10.1296C83.7646 10.2422 83.8934 10.7759 83.4783 11.3227L79.7391 16.249C79.3244 16.7954 79.0675 17.8631 79.1655 18.6353L80.0482 25.5914C80.1461 26.3629 79.8104 26.6933 79.2973 26.3287L74.6755 23.0445Z" fill="white"/>
</mask>
<g mask="url(#mask1_96_2824)">
<path fill-rule="evenodd" clip-rule="evenodd" d="M73.9226 -0.432861H88.2678V29.8332H73.9226V-0.432861Z" fill="#FBC50C"/>
</g>
<path d="M11.3129 23.0445C10.8003 22.6803 9.96968 22.6799 9.45662 23.0445L4.8348 26.3287C4.32219 26.693 3.98591 26.3635 4.0839 25.5914L4.96659 18.6353C5.06449 17.8638 4.80803 16.7959 4.39295 16.249L0.653822 11.3227C0.239113 10.7763 0.367012 10.2423 0.940639 10.1296L6.10799 9.11473C6.68111 9.00217 7.35325 8.34252 7.60979 7.63996L9.9207 1.31111C10.177 0.609176 10.5923 0.608547 10.8489 1.31111L13.1598 7.63996C13.4161 8.34189 14.0879 9.00207 14.6616 9.11473L19.8289 10.1296C20.402 10.2422 20.5308 10.7759 20.1157 11.3227L16.3766 16.249C15.9619 16.7954 15.705 17.8631 15.803 18.6353L16.6857 25.5914C16.7836 26.3629 16.4478 26.6933 15.9348 26.3287L11.3129 23.0445Z" fill="#FBC50C"/>
<mask id="mask2_96_2824" style="mask-type:luminance" maskUnits="userSpaceOnUse" x="0" y="0" width="21" height="27">
<path d="M11.3129 23.0445C10.8003 22.6803 9.96968 22.6799 9.45662 23.0445L4.8348 26.3287C4.32219 26.693 3.98591 26.3635 4.0839 25.5914L4.96659 18.6353C5.06449 17.8638 4.80803 16.7959 4.39295 16.249L0.653822 11.3227C0.239113 10.7763 0.367012 10.2423 0.940639 10.1296L6.10799 9.11473C6.68111 9.00217 7.35325 8.34252 7.60979 7.63996L9.9207 1.31111C10.177 0.609176 10.5923 0.608547 10.8489 1.31111L13.1598 7.63996C13.4161 8.34189 14.0879 9.00207 14.6616 9.11473L19.8289 10.1296C20.402 10.2422 20.5308 10.7759 20.1157 11.3227L16.3766 16.249C15.9619 16.7954 15.705 17.8631 15.803 18.6353L16.6857 25.5914C16.7836 26.3629 16.4478 26.6933 15.9348 26.3287L11.3129 23.0445Z" fill="white"/>
</mask>
<g mask="url(#mask2_96_2824)">
<path fill-rule="evenodd" clip-rule="evenodd" d="M10.5596 -0.432861H24.9047V29.8332H10.5596V-0.432861Z" fill="#FBC50C"/>
</g>
<path d="M32.2226 23.0445C31.71 22.6803 30.8794 22.6799 30.3663 23.0445L25.7445 26.3287C25.2319 26.693 24.8956 26.3635 24.9936 25.5914L25.8763 18.6353C25.9742 17.8638 25.7177 16.7959 25.3026 16.249L21.5635 11.3227C21.1488 10.7763 21.2767 10.2423 21.8503 10.1296L27.0177 9.11473C27.5908 9.00217 28.2629 8.34252 28.5195 7.63996L30.8304 1.31111C31.0867 0.609176 31.502 0.608547 31.7585 1.31111L34.0694 7.63996C34.3257 8.34189 34.9976 9.00207 35.5712 9.11473L40.7386 10.1296C41.3117 10.2422 41.4405 10.7759 41.0254 11.3227L37.2863 16.249C36.8716 16.7954 36.6146 17.8631 36.7126 18.6353L37.5953 25.5914C37.6932 26.3629 37.3575 26.6933 36.8444 26.3287L32.2226 23.0445Z" fill="#FBC50C"/>
<mask id="mask3_96_2824" style="mask-type:luminance" maskUnits="userSpaceOnUse" x="21" y="0" width="21" height="27">
<path d="M32.2226 23.0445C31.71 22.6803 30.8794 22.6799 30.3663 23.0445L25.7445 26.3287C25.2319 26.693 24.8956 26.3635 24.9936 25.5914L25.8763 18.6353C25.9742 17.8638 25.7177 16.7959 25.3026 16.249L21.5635 11.3227C21.1488 10.7763 21.2767 10.2423 21.8503 10.1296L27.0177 9.11473C27.5908 9.00217 28.2629 8.34252 28.5195 7.63996L30.8304 1.31111C31.0867 0.609176 31.502 0.608547 31.7585 1.31111L34.0694 7.63996C34.3257 8.34189 34.9976 9.00207 35.5712 9.11473L40.7386 10.1296C41.3117 10.2422 41.4405 10.7759 41.0254 11.3227L37.2863 16.249C36.8716 16.7954 36.6146 17.8631 36.7126 18.6353L37.5953 25.5914C37.6932 26.3629 37.3575 26.6933 36.8444 26.3287L32.2226 23.0445Z" fill="white"/>
</mask>
<g mask="url(#mask3_96_2824)">
<path fill-rule="evenodd" clip-rule="evenodd" d="M31.469 -0.432861H45.8141V29.8332H31.469V-0.432861Z" fill="#FBC50C"/>
</g>
<path d="M53.7661 23.0445C53.2535 22.6803 52.4228 22.6799 51.9097 23.0445L47.2879 26.3287C46.7753 26.693 46.439 26.3635 46.537 25.5914L47.4197 18.6353C47.5176 17.8638 47.2612 16.7959 46.8461 16.249L43.1069 11.3227C42.6922 10.7763 42.8201 10.2423 43.3938 10.1296L48.5611 9.11473C49.1342 9.00217 49.8064 8.34252 50.0629 7.63996L52.3738 1.31111C52.6301 0.609176 53.0454 0.608547 53.302 1.31111L55.6129 7.63996C55.8692 8.34189 56.5411 9.00207 57.1147 9.11473L62.282 10.1296C62.8552 10.2422 62.9839 10.7759 62.5689 11.3227L58.8297 16.249C58.415 16.7954 58.1581 17.8631 58.2561 18.6353L59.1388 25.5914C59.2367 26.3629 58.901 26.6933 58.3879 26.3287L53.7661 23.0445Z" fill="#FBC50C"/>
<mask id="mask4_96_2824" style="mask-type:luminance" maskUnits="userSpaceOnUse" x="42" y="0" width="21" height="27">
<path d="M53.7661 23.0445C53.2535 22.6803 52.4228 22.6799 51.9097 23.0445L47.2879 26.3287C46.7753 26.693 46.439 26.3635 46.537 25.5914L47.4197 18.6353C47.5176 17.8638 47.2612 16.7959 46.8461 16.249L43.1069 11.3227C42.6922 10.7763 42.8201 10.2423 43.3938 10.1296L48.5611 9.11473C49.1342 9.00217 49.8064 8.34252 50.0629 7.63996L52.3738 1.31111C52.6301 0.609176 53.0454 0.608547 53.302 1.31111L55.6129 7.63996C55.8692 8.34189 56.5411 9.00207 57.1147 9.11473L62.282 10.1296C62.8552 10.2422 62.9839 10.7759 62.5689 11.3227L58.8297 16.249C58.415 16.7954 58.1581 17.8631 58.2561 18.6353L59.1388 25.5914C59.2367 26.3629 58.901 26.6933 58.3879 26.3287L53.7661 23.0445Z" fill="white"/>
</mask>
<g mask="url(#mask4_96_2824)">
<path fill-rule="evenodd" clip-rule="evenodd" d="M53.0125 -0.432861H67.3576V29.8332H53.0125V-0.432861Z" fill="#FBC50C"/>
</g>
</svg>
