<svg width="128" height="21" viewBox="0 0 128 21" fill="none" xmlns="http://www.w3.org/2000/svg">
<path d="M116.411 17.5791C115.787 17.2914 114.776 17.2912 114.152 17.5791L108.526 20.1726C107.902 20.4603 107.493 20.2001 107.612 19.5903L108.686 14.0971C108.805 13.4878 108.493 12.6445 107.988 12.2127L103.437 8.32236C102.932 7.89088 103.088 7.46912 103.786 7.38015L110.076 6.5787C110.773 6.48981 111.591 5.96888 111.904 5.41407L114.716 0.41617C115.028 -0.138149 115.534 -0.138646 115.846 0.41617L118.659 5.41407C118.971 5.96839 119.789 6.48973 120.487 6.5787L126.777 7.38015C127.475 7.46904 127.631 7.89049 127.126 8.32236L122.575 12.2127C122.07 12.6442 121.757 13.4873 121.876 14.0971L122.951 19.5903C123.07 20.1996 122.661 20.4605 122.037 20.1726L116.411 17.5791Z" fill="white"/>
<mask id="mask0_96_2044" style="mask-type:luminance" maskUnits="userSpaceOnUse" x="103" y="0" width="25" height="21">
<path d="M116.411 17.5791C115.787 17.2914 114.776 17.2912 114.152 17.5791L108.526 20.1726C107.902 20.4603 107.493 20.2001 107.612 19.5903L108.686 14.0971C108.805 13.4878 108.493 12.6445 107.988 12.2127L103.437 8.32236C102.932 7.89088 103.088 7.46912 103.786 7.38015L110.076 6.5787C110.773 6.48981 111.591 5.96888 111.904 5.41407L114.716 0.41617C115.028 -0.138149 115.534 -0.138646 115.846 0.41617L118.659 5.41407C118.971 5.96839 119.789 6.48973 120.487 6.5787L126.777 7.38015C127.475 7.46904 127.631 7.89049 127.126 8.32236L122.575 12.2127C122.07 12.6442 121.757 13.4873 121.876 14.0971L122.951 19.5903C123.07 20.1996 122.661 20.4605 122.037 20.1726L116.411 17.5791Z" fill="white"/>
</mask>
<g mask="url(#mask0_96_2044)">
<path fill-rule="evenodd" clip-rule="evenodd" d="M115.494 -0.960938H132.956V22.9402H115.494V-0.960938Z" fill="white"/>
</g>
<path d="M90.9597 17.5791C90.3358 17.2914 89.3247 17.2912 88.7002 17.5791L83.0744 20.1726C82.4505 20.4603 82.0411 20.2001 82.1604 19.5903L83.2348 14.0971C83.354 13.4878 83.0418 12.6445 82.5366 12.2127L77.9853 8.32236C77.4805 7.89088 77.6362 7.46912 78.3344 7.38015L84.6242 6.5787C85.3218 6.48981 86.1399 5.96888 86.4522 5.41407L89.2651 0.41617C89.577 -0.138149 90.0826 -0.138646 90.3948 0.41617L93.2077 5.41407C93.5197 5.96839 94.3375 6.48973 95.0357 6.5787L101.326 7.38015C102.023 7.46904 102.18 7.89049 101.675 8.32236L97.1233 12.2127C96.6185 12.6442 96.3058 13.4873 96.4251 14.0971L97.4995 19.5903C97.6187 20.1996 97.21 20.4605 96.5855 20.1726L90.9597 17.5791Z" fill="#FBC50C"/>
<mask id="mask1_96_2044" style="mask-type:luminance" maskUnits="userSpaceOnUse" x="77" y="0" width="25" height="21">
<path d="M90.9597 17.5791C90.3358 17.2914 89.3247 17.2912 88.7002 17.5791L83.0744 20.1726C82.4505 20.4603 82.0411 20.2001 82.1604 19.5903L83.2348 14.0971C83.354 13.4878 83.0418 12.6445 82.5366 12.2127L77.9853 8.32236C77.4805 7.89088 77.6362 7.46912 78.3344 7.38015L84.6242 6.5787C85.3218 6.48981 86.1399 5.96888 86.4522 5.41407L89.2651 0.41617C89.577 -0.138149 90.0826 -0.138646 90.3948 0.41617L93.2077 5.41407C93.5197 5.96839 94.3375 6.48973 95.0357 6.5787L101.326 7.38015C102.023 7.46904 102.18 7.89049 101.675 8.32236L97.1233 12.2127C96.6185 12.6442 96.3058 13.4873 96.4251 14.0971L97.4995 19.5903C97.6187 20.1996 97.21 20.4605 96.5855 20.1726L90.9597 17.5791Z" fill="white"/>
</mask>
<g mask="url(#mask1_96_2044)">
<path fill-rule="evenodd" clip-rule="evenodd" d="M90.043 -0.960938H107.504V22.9402H90.043V-0.960938Z" fill="#FBC50C"/>
</g>
<path d="M13.8333 17.5791C13.2093 17.2914 12.1982 17.2912 11.5737 17.5791L5.94796 20.1726C5.324 20.4603 4.91468 20.2001 5.03395 19.5903L6.10838 14.0971C6.22754 13.4878 5.91538 12.6445 5.41014 12.2127L0.858797 8.32236C0.354006 7.89088 0.509686 7.46912 1.20792 7.38015L7.49771 6.5787C8.19532 6.48981 9.01347 5.96888 9.32572 5.41407L12.1386 0.41617C12.4506 -0.138149 12.9561 -0.138646 13.2684 0.41617L16.0813 5.41407C16.3932 5.96839 17.211 6.48973 17.9093 6.5787L24.1991 7.38015C24.8967 7.46904 25.0534 7.89049 24.5482 8.32236L19.9968 12.2127C19.4921 12.6442 19.1793 13.4873 19.2986 14.0971L20.373 19.5903C20.4922 20.1996 20.0835 20.4605 19.459 20.1726L13.8333 17.5791Z" fill="#FBC50C"/>
<mask id="mask2_96_2044" style="mask-type:luminance" maskUnits="userSpaceOnUse" x="0" y="0" width="25" height="21">
<path d="M13.8333 17.5791C13.2093 17.2914 12.1982 17.2912 11.5737 17.5791L5.94796 20.1726C5.324 20.4603 4.91468 20.2001 5.03395 19.5903L6.10838 14.0971C6.22754 13.4878 5.91538 12.6445 5.41014 12.2127L0.858797 8.32236C0.354006 7.89088 0.509686 7.46912 1.20792 7.38015L7.49771 6.5787C8.19532 6.48981 9.01347 5.96888 9.32572 5.41407L12.1386 0.41617C12.4506 -0.138149 12.9561 -0.138646 13.2684 0.41617L16.0813 5.41407C16.3932 5.96839 17.211 6.48973 17.9093 6.5787L24.1991 7.38015C24.8967 7.46904 25.0534 7.89049 24.5482 8.32236L19.9968 12.2127C19.4921 12.6442 19.1793 13.4873 19.2986 14.0971L20.373 19.5903C20.4922 20.1996 20.0835 20.4605 19.459 20.1726L13.8333 17.5791Z" fill="white"/>
</mask>
<g mask="url(#mask2_96_2044)">
<path fill-rule="evenodd" clip-rule="evenodd" d="M12.9165 -0.960938H30.3777V22.9402H12.9165V-0.960938Z" fill="#FBC50C"/>
</g>
<path d="M39.2847 17.5791C38.6607 17.2914 37.6497 17.2912 37.0251 17.5791L31.3994 20.1726C30.7754 20.4603 30.3661 20.2001 30.4854 19.5903L31.5598 14.0971C31.679 13.4878 31.3668 12.6445 30.8616 12.2127L26.3102 8.32236C25.8054 7.89088 25.9611 7.46912 26.6593 7.38015L32.9491 6.5787C33.6467 6.48981 34.4649 5.96888 34.7771 5.41407L37.59 0.41617C37.902 -0.138149 38.4075 -0.138646 38.7198 0.41617L41.5327 5.41407C41.8447 5.96839 42.6625 6.48973 43.3607 6.5787L49.6505 7.38015C50.3481 7.46904 50.5048 7.89049 49.9996 8.32236L45.4483 12.2127C44.9435 12.6442 44.6308 13.4873 44.75 14.0971L45.8245 19.5903C45.9436 20.1996 45.535 20.4605 44.9104 20.1726L39.2847 17.5791Z" fill="#FBC50C"/>
<mask id="mask3_96_2044" style="mask-type:luminance" maskUnits="userSpaceOnUse" x="26" y="0" width="25" height="21">
<path d="M39.2847 17.5791C38.6607 17.2914 37.6497 17.2912 37.0251 17.5791L31.3994 20.1726C30.7754 20.4603 30.3661 20.2001 30.4854 19.5903L31.5598 14.0971C31.679 13.4878 31.3668 12.6445 30.8616 12.2127L26.3102 8.32236C25.8054 7.89088 25.9611 7.46912 26.6593 7.38015L32.9491 6.5787C33.6467 6.48981 34.4649 5.96888 34.7771 5.41407L37.59 0.41617C37.902 -0.138149 38.4075 -0.138646 38.7198 0.41617L41.5327 5.41407C41.8447 5.96839 42.6625 6.48973 43.3607 6.5787L49.6505 7.38015C50.3481 7.46904 50.5048 7.89049 49.9996 8.32236L45.4483 12.2127C44.9435 12.6442 44.6308 13.4873 44.75 14.0971L45.8245 19.5903C45.9436 20.1996 45.535 20.4605 44.9104 20.1726L39.2847 17.5791Z" fill="white"/>
</mask>
<g mask="url(#mask3_96_2044)">
<path fill-rule="evenodd" clip-rule="evenodd" d="M38.3682 -0.960938H55.8293V22.9402H38.3682V-0.960938Z" fill="#FBC50C"/>
</g>
<path d="M65.5076 17.5791C64.8836 17.2914 63.8726 17.2912 63.248 17.5791L57.6223 20.1726C56.9983 20.4603 56.589 20.2001 56.7083 19.5903L57.7827 14.0971C57.9019 13.4878 57.5897 12.6445 57.0845 12.2127L52.5331 8.32236C52.0283 7.89088 52.184 7.46912 52.8822 7.38015L59.172 6.5787C59.8696 6.48981 60.6878 5.96888 61 5.41407L63.8129 0.41617C64.1249 -0.138149 64.6304 -0.138646 64.9427 0.41617L67.7556 5.41407C68.0676 5.96839 68.8854 6.48973 69.5836 6.5787L75.8734 7.38015C76.571 7.46904 76.7277 7.89049 76.2225 8.32236L71.6712 12.2127C71.1664 12.6442 70.8537 13.4873 70.9729 14.0971L72.0474 19.5903C72.1665 20.1996 71.7579 20.4605 71.1333 20.1726L65.5076 17.5791Z" fill="#FBC50C"/>
<mask id="mask4_96_2044" style="mask-type:luminance" maskUnits="userSpaceOnUse" x="52" y="0" width="25" height="21">
<path d="M65.5076 17.5791C64.8836 17.2914 63.8726 17.2912 63.248 17.5791L57.6223 20.1726C56.9983 20.4603 56.589 20.2001 56.7083 19.5903L57.7827 14.0971C57.9019 13.4878 57.5897 12.6445 57.0845 12.2127L52.5331 8.32236C52.0283 7.89088 52.184 7.46912 52.8822 7.38015L59.172 6.5787C59.8696 6.48981 60.6878 5.96888 61 5.41407L63.8129 0.41617C64.1249 -0.138149 64.6304 -0.138646 64.9427 0.41617L67.7556 5.41407C68.0676 5.96839 68.8854 6.48973 69.5836 6.5787L75.8734 7.38015C76.571 7.46904 76.7277 7.89049 76.2225 8.32236L71.6712 12.2127C71.1664 12.6442 70.8537 13.4873 70.9729 14.0971L72.0474 19.5903C72.1665 20.1996 71.7579 20.4605 71.1333 20.1726L65.5076 17.5791Z" fill="white"/>
</mask>
<g mask="url(#mask4_96_2044)">
<path fill-rule="evenodd" clip-rule="evenodd" d="M64.5908 -0.960938H82.052V22.9402H64.5908V-0.960938Z" fill="#FBC50C"/>
</g>
</svg>
