<svg width="10" height="12" viewBox="0 0 10 12" fill="none" xmlns="http://www.w3.org/2000/svg">
<path d="M0 2.22222C0 1.61111 0.5 1.11111 1.11111 1.11111H8.88889C9.18357 1.11111 9.46619 1.22817 9.67456 1.43655C9.88294 1.64492 10 1.92754 10 2.22222V10C10 10.2947 9.88294 10.5773 9.67456 10.7857C9.46619 10.994 9.18357 11.1111 8.88889 11.1111H1.11111C0.816426 11.1111 0.533811 10.994 0.325437 10.7857C0.117063 10.5773 0 10.2947 0 10V2.22222ZM1.11111 3.33333V10H8.88889V3.33333H1.11111ZM2.22222 0H3.33333V1.11111H2.22222V0ZM6.66667 0H7.77778V1.11111H6.66667V0ZM2.22222 5H3.33333V6.11111H2.22222V5ZM2.22222 7.22222H3.33333V8.33333H2.22222V7.22222ZM4.44444 5H5.55556V6.11111H4.44444V5ZM4.44444 7.22222H5.55556V8.33333H4.44444V7.22222ZM6.66667 5H7.77778V6.11111H6.66667V5ZM6.66667 7.22222H7.77778V8.33333H6.66667V7.22222Z" fill="black"/>
</svg>
