<svg width="8" height="12" viewBox="0 0 8 12" fill="none" xmlns="http://www.w3.org/2000/svg">
<path d="M4 12C4 12 0 6.522 0 4.2C-7.82739e-09 3.64845 0.103463 3.1023 0.304482 2.59273C0.505501 2.08316 0.800139 1.62016 1.17157 1.23015C1.54301 0.840145 1.98396 0.530776 2.46927 0.319706C2.95457 0.108636 3.47471 0 4 0C4.52529 0 5.04543 0.108636 5.53073 0.319706C6.01604 0.530776 6.45699 0.840145 6.82843 1.23015C7.19986 1.62016 7.4945 2.08316 7.69552 2.59273C7.89654 3.1023 8 3.64845 8 4.2C8 6.522 4 12 4 12ZM4 5.4C4.3031 5.4 4.59379 5.27357 4.80812 5.04853C5.02245 4.82348 5.14286 4.51826 5.14286 4.2C5.14286 3.88174 5.02245 3.57652 4.80812 3.35147C4.59379 3.12643 4.3031 3 4 3C3.6969 3 3.40621 3.12643 3.19188 3.35147C2.97755 3.57652 2.85714 3.88174 2.85714 4.2C2.85714 4.51826 2.97755 4.82348 3.19188 5.04853C3.40621 5.27357 3.6969 5.4 4 5.4Z" fill="black"/>
</svg>
