<svg width="11" height="12" viewBox="0 0 11 12" fill="none" xmlns="http://www.w3.org/2000/svg">
<path d="M0.339844 2.66668C0.339844 2.05557 0.839844 1.55557 1.45095 1.55557H9.22873C9.52342 1.55557 9.80603 1.67263 10.0144 1.88101C10.2228 2.08938 10.3398 2.372 10.3398 2.66668V10.4445C10.3398 10.7391 10.2228 11.0218 10.0144 11.2301C9.80603 11.4385 9.52342 11.5556 9.22873 11.5556H1.45095C1.15627 11.5556 0.873654 11.4385 0.665281 11.2301C0.456907 11.0218 0.339844 10.7391 0.339844 10.4445V2.66668ZM1.45095 3.77779V10.4445H9.22873V3.77779H1.45095ZM2.56207 0.444458H3.67318V1.55557H2.56207V0.444458ZM7.00651 0.444458H8.11762V1.55557H7.00651V0.444458ZM2.56207 5.44446H3.67318V6.55557H2.56207V5.44446ZM2.56207 7.66668H3.67318V8.77779H2.56207V7.66668ZM4.78429 5.44446H5.8954V6.55557H4.78429V5.44446ZM4.78429 7.66668H5.8954V8.77779H4.78429V7.66668ZM7.00651 5.44446H8.11762V6.55557H7.00651V5.44446ZM7.00651 7.66668H8.11762V8.77779H7.00651V7.66668Z" fill="black"/>
</svg>
