<svg width="61" height="72" viewBox="0 0 61 72" fill="none" xmlns="http://www.w3.org/2000/svg">
<path d="M60.4051 35.6488C60.3965 37.1638 60.0093 38.6582 59.2715 40.0235C58.5337 41.3887 57.4638 42.5906 56.1396 43.5419L22.149 68.527C20.1027 69.987 17.6369 70.9057 15.0327 71.1785C12.4285 71.4514 9.79066 71.0673 7.4197 70.07C5.35911 69.2613 3.60351 67.9414 2.36258 66.2682C1.12165 64.5949 0.447844 62.6389 0.421631 60.6339L0.421631 10.6637C0.447844 8.65859 1.12165 6.70261 2.36258 5.02935C3.60351 3.35608 5.35911 2.03625 7.4197 1.22747C9.79066 0.230247 12.4285 -0.153853 15.0327 0.118959C17.6369 0.39177 20.1027 1.31051 22.149 2.77048L56.1396 27.7556C57.4638 28.7069 58.5337 29.9088 59.2715 31.2741C60.0093 32.6393 60.3965 34.1337 60.4051 35.6488Z" fill="#F2A6F3"/>
</svg>
