<svg width="9" height="12" viewBox="0 0 9 12" fill="none" xmlns="http://www.w3.org/2000/svg">
<path d="M4.33984 12C4.33984 12 0.339844 6.522 0.339844 4.2C0.339844 3.64845 0.443307 3.1023 0.644326 2.59273C0.845344 2.08316 1.13998 1.62016 1.51142 1.23015C1.88285 0.840145 2.32381 0.530776 2.80911 0.319706C3.29441 0.108636 3.81456 0 4.33984 0C4.86513 0 5.38528 0.108636 5.87058 0.319706C6.35588 0.530776 6.79684 0.840145 7.16827 1.23015C7.53971 1.62016 7.83434 2.08316 8.03536 2.59273C8.23638 3.1023 8.33984 3.64845 8.33984 4.2C8.33984 6.522 4.33984 12 4.33984 12ZM4.33984 5.4C4.64295 5.4 4.93364 5.27357 5.14797 5.04853C5.36229 4.82348 5.4827 4.51826 5.4827 4.2C5.4827 3.88174 5.36229 3.57652 5.14797 3.35147C4.93364 3.12643 4.64295 3 4.33984 3C4.03674 3 3.74605 3.12643 3.53172 3.35147C3.31739 3.57652 3.19699 3.88174 3.19699 4.2C3.19699 4.51826 3.31739 4.82348 3.53172 5.04853C3.74605 5.27357 4.03674 5.4 4.33984 5.4Z" fill="black"/>
</svg>
