<svg width="26" height="21" viewBox="0 0 26 21" fill="none" xmlns="http://www.w3.org/2000/svg">
<path d="M19.8197 16.4548C20.3006 16.0574 21.0716 16.0574 21.5526 16.4548L24.7314 18.5894H24.7866C25.4297 19.1302 25.4297 20.0069 24.7866 20.5477C24.1435 21.0885 23.1008 21.0885 22.4577 20.5477L19.8197 18.0325L19.7196 17.9386C19.5331 17.7422 19.4301 17.4974 19.4301 17.2436C19.4301 16.9476 19.5703 16.6637 19.8197 16.4548ZM11.0558 0.25C13.8865 0.25 16.6013 1.19556 18.603 2.87866C20.6047 4.56176 21.7292 6.84453 21.7292 9.2248C21.7292 14.1814 16.9505 18.1996 11.0558 18.1996C5.16098 18.1996 0.382324 14.1814 0.382324 9.2248C0.382324 4.26815 5.16098 0.25 11.0558 0.25Z" fill="black"/>
</svg>
